<svg width="315" height="58" viewBox="0 0 315 58" fill="none" xmlns="http://www.w3.org/2000/svg">
<path d="M10.0371 27.9805H16.9149V19.7202H10.0371V10.2739H0V19.7202V27.9805V44.8398C0 51.0039 4.99755 56.0015 11.1616 56.0015H18.3138V46.9105H10.0371V27.9805Z" fill="black"/>
<path d="M88.7726 40.628C88.7726 42.9476 88.1533 44.8039 86.9148 46.1999C85.6763 47.5958 83.976 48.2945 81.8168 48.2945C79.6562 48.2945 77.9963 47.7412 76.8373 46.6347C75.6783 45.5281 75.098 43.6838 75.098 41.1019V19.7203H64.9814V42.7212C64.9814 47.095 66.154 50.5796 68.4991 53.1736C70.8442 55.7691 74.1758 57.0676 78.4971 57.0676C80.9217 57.0676 83.0883 56.6193 85.0001 55.7241C86.9088 54.829 88.5102 53.4855 89.8012 51.6922L90.4729 56H98.8112V19.7188H88.7726V40.628Z" fill="black"/>
<path d="M174.197 18.5356C171.483 18.5356 169.105 19.1159 167.063 20.2749C165.021 21.434 163.46 23.0684 162.379 25.175C161.404 23.1208 159.89 21.5 157.834 20.3139C155.778 19.1294 153.433 18.5356 150.799 18.5356C148.745 18.5356 146.774 18.9705 144.891 19.8386C143.006 20.7083 141.525 21.8943 140.444 23.3952L139.93 19.7202H130.722V56.0014H140.84V35.0546C140.84 32.8415 141.457 30.9912 142.696 29.5023C143.934 28.0134 145.582 27.2682 147.637 27.2682C149.638 27.2682 151.232 27.9144 152.418 29.2054C153.603 30.4964 154.196 32.2747 154.196 34.5404V55.9999H164.078V35.0531C164.078 32.7351 164.695 30.8443 165.934 29.3824C167.172 27.9204 168.898 27.1887 171.111 27.1887C172.981 27.1887 174.485 27.82 175.617 29.0855C176.749 30.3495 177.316 32.1683 177.316 34.5389V55.9984H187.354V32.1278C187.354 27.9654 186.129 24.6592 183.678 22.2077C181.231 19.7607 178.07 18.5356 174.197 18.5356Z" fill="black"/>
<path d="M223.03 23.8705C221.712 22.1312 220 20.8072 217.893 19.8986C215.783 18.9884 213.387 18.5356 210.699 18.5356C207.195 18.5356 204.065 19.3453 201.312 20.9662C198.559 22.587 196.43 24.8781 194.929 27.8425C193.428 30.8068 192.676 34.2255 192.676 38.0985C192.676 41.8935 193.4 45.2192 194.85 48.0785C196.298 50.9379 198.321 53.1511 200.917 54.7179C203.512 56.2848 206.482 57.069 209.829 57.069C212.516 57.069 214.993 56.5547 217.259 55.5276C219.524 54.5005 221.276 53.1166 222.516 51.3787V56.0029H232.158V19.7217H223.82L223.03 23.8705ZM219.376 45.1127C217.597 46.9705 215.272 47.8986 212.401 47.8986C209.607 47.8986 207.336 46.957 205.583 45.0722C203.83 43.189 202.954 40.7314 202.954 37.7026C202.954 34.6738 203.81 32.2163 205.524 30.3315C207.237 28.4482 209.555 27.5051 212.48 27.5051C215.35 27.5051 217.662 28.4332 219.416 30.291C221.169 32.1488 222.045 34.6198 222.045 37.7011C222.045 40.7824 221.153 43.2549 219.376 45.1127Z" fill="black"/>
<path d="M301.905 46.5551C300.416 47.6617 298.591 48.215 296.432 48.215C293.69 48.215 291.511 47.2733 289.89 45.3886C288.271 43.5053 287.461 40.9953 287.461 37.86C287.461 34.6723 288.283 32.1353 289.931 30.252C291.577 28.3688 293.745 27.4257 296.433 27.4257C298.54 27.4257 300.326 27.9399 301.788 28.967C303.25 29.9941 304.218 31.4845 304.692 33.4338H314.968C314.545 28.9026 312.662 25.286 309.315 22.5856C305.968 19.8851 301.726 18.5356 296.589 18.5356C292.769 18.5356 289.391 19.3333 286.453 20.9257C283.516 22.5196 281.237 24.7732 279.618 27.6836C277.997 30.5954 277.186 33.9616 277.186 37.7806C277.186 41.6281 277.997 45.0077 279.618 47.9181C281.237 50.83 283.516 53.0821 286.453 54.676C289.391 56.2698 292.769 57.0675 296.589 57.0675C301.621 57.0675 305.824 55.703 309.198 52.9771C312.57 50.2512 314.494 46.6736 314.968 42.2473H304.692C304.32 44.0136 303.392 45.4486 301.905 46.5551Z" fill="black"/>
<path d="M248.13 19.7202V10.2739H238.092V19.7202V27.9805V44.8398C238.092 51.0039 243.089 56.0015 249.255 56.0015H256.407V46.9105H248.13V27.9805H252.71H261.998V56.0015H272.038V19.7202H255.007H248.13Z" fill="black"/>
<path d="M267.019 0C265.094 0 263.482 0.619277 262.178 1.85779C260.873 3.0963 260.752 4.66467 260.752 6.55992C260.752 8.37721 260.873 9.92609 262.178 11.2036C263.482 12.4826 265.094 13.1198 267.019 13.1198C268.967 13.1198 270.602 12.4886 271.92 11.2231C273.236 9.9576 273.894 8.4042 273.894 6.55992C273.894 4.71565 273.236 3.16078 271.92 1.89678C270.6 0.631274 268.967 0 267.019 0Z" fill="black"/>
<path d="M117.323 20.7353C117.316 20.7398 117.308 20.7443 117.299 20.7488C115.706 21.6964 114.646 23.0939 114.119 24.9381L113.289 19.7217H104.16V56.0029H114.277V38.3758C114.277 35.1881 115.14 32.7171 116.865 30.9658C118.59 29.213 121.073 28.3373 124.315 28.3373C125.185 28.3373 125.83 28.3643 126.252 28.4168V19.7217H121.408C119.983 19.7202 118.548 20.0096 117.323 20.7353Z" fill="black"/>
<path d="M41.0829 57.0722C51.724 57.0722 60.3503 48.4459 60.3503 37.8048C60.3503 27.1637 51.724 18.5374 41.0829 18.5374C30.4418 18.5374 21.8154 27.1637 21.8154 37.8048C21.8154 48.4459 30.4418 57.0722 41.0829 57.0722Z" fill="#FF9015"/>
<path fill-rule="evenodd" clip-rule="evenodd" d="M18.3135 33.4444L29.9564 37.8302C30.7946 38.1466 31.7212 38.1376 32.5534 37.8047L46.6119 32.1909L34.2027 40.2937C33.3466 40.853 32.7678 41.7512 32.6149 42.7633L32.159 45.7771L62.807 23.4644L18.3135 33.4444Z" fill="black"/>
</svg>
